<?xml version="1.0" encoding="utf-8"?>
<!-- Generator: Adobe Illustrator 22.1.0, SVG Export Plug-In . SVG Version: 6.00 Build 0)  -->
<svg version="1.1" id="Layer_1" xmlns="http://www.w3.org/2000/svg" xmlns:xlink="http://www.w3.org/1999/xlink" x="0px" y="0px"
	 viewBox="0 0 21.3 21.3" style="enable-background:new 0 0 21.3 21.3;" xml:space="preserve">
<title>Asset 13</title>
<g id="Layer_2_1_">
	<g id="Layer_1-2">
		<path d="M14.4,13.1c2.1-1.3,3.4-3.5,3.4-6c-0.1-3.9-3.4-7-7.4-6.8C6.7,0.4,3.7,3.4,3.6,7.1c0,2.5,1.3,4.7,3.4,6
			c-3.6,1.3-6.2,4.4-6.9,8.2h1.8c1.1-4.9,6-8,10.9-6.9c3.4,0.8,6.1,3.5,6.9,6.9h1.8C20.6,17.5,18,14.4,14.4,13.1z M5.3,7.1
			c0-2.9,2.4-5.3,5.3-5.3S16,4.2,16,7.1s-2.4,5.3-5.3,5.3l0,0C7.7,12.5,5.3,10.1,5.3,7.1C5.3,7.1,5.3,7.1,5.3,7.1L5.3,7.1z"/>
	</g>
</g>
</svg>
